<svg width="75" height="88" viewBox="0 0 75 88" fill="none" xmlns="http://www.w3.org/2000/svg">
<path d="M56.1489 18.9174C56.1489 20.1957 57.2465 21.4739 58.7809 21.4739C60.9733 21.4739 61.6313 20.4513 61.6313 18.9174C61.6313 18.6617 61.6313 18.6617 61.6313 18.4072C61.4129 17.6402 60.7539 17.1289 60.0979 16.6176C59.8776 16.6176 59.4399 16.3619 59.0022 16.3619C57.4649 16.3631 56.1489 17.3846 56.1489 18.9174Z" fill="#585858"/>
<path d="M60.7559 10.4807C60.5346 8.94674 59.6582 7.66846 58.5625 7.66846C57.4649 7.66846 56.8069 8.94674 57.0282 10.4807C57.2495 12.0146 58.1239 13.2929 59.2205 13.2929C60.0979 13.2929 60.9742 12.0146 60.7559 10.4807Z" fill="#585858"/>
<path d="M50.8857 29.6551L54.6144 25.3089C56.8068 27.3542 59.4418 28.6325 62.2921 28.6325C69.0906 28.6325 74.5749 22.2399 74.5749 14.3157C74.573 6.39029 69.0906 0 62.2912 0C55.4937 0 50.0084 6.39143 50.0084 14.3168C50.0084 17.896 51.1041 20.9628 52.8597 23.2648L49.1301 27.6121C49.7881 28.378 50.4461 29.1461 50.8857 29.6551ZM64.2652 9.71384H66.6769V6.90275H67.5542V9.71498H69.9679V10.7376H67.5542V13.551H66.6769V10.7365H64.2652V9.71384ZM58.7818 14.5713C58.7818 14.3157 58.7818 14.06 59.0031 13.8044C58.7818 13.8044 58.7818 13.8044 58.5654 13.8044C56.8097 13.8044 55.4937 12.2704 55.4937 10.4808C55.4937 8.69121 57.2474 7.15726 59.0031 7.15726H62.9492L62.0718 7.92424H60.7558C61.6332 8.18103 62.0718 9.45932 62.0718 10.7365C62.0718 11.7591 61.6332 12.5261 60.9742 13.293C60.3162 13.8044 60.0968 14.06 60.0968 14.5713C60.0968 15.0826 60.7558 15.8496 61.1935 16.1053C62.2892 16.8722 62.5095 17.8949 62.5095 19.1732C62.5095 20.9616 61.1935 22.4967 58.5625 22.4967C56.3701 22.4967 54.3951 21.4741 54.3951 19.6845C54.3951 17.8949 56.1488 16.3609 58.3421 16.3609C58.5625 16.3609 58.7798 16.3609 59.0002 16.3609C59.0002 15.5951 58.7818 15.0838 58.7818 14.5713Z" fill="#585858"/>
<path d="M62.2912 58.8011C59.4409 58.8011 56.5895 60.0783 54.6135 62.1247L50.8858 57.7773C50.4462 58.5443 49.7882 59.0533 49.3505 59.5647L53.0801 63.912C51.3255 66.4663 50.2288 69.5376 50.2288 72.8611C50.2288 80.7854 55.7141 87.1779 62.5125 87.1779C69.31 87.1779 74.7963 80.7854 74.7963 72.8611C74.573 64.9357 69.0906 58.8011 62.2912 58.8011ZM58.7819 79.5094H56.3692V70.5602H58.7819V79.5094ZM57.6852 69.2842C56.8079 69.2842 56.1508 68.5161 56.1508 67.748C56.1508 66.981 56.8088 66.214 57.6852 66.214C58.5616 66.214 59.2196 66.981 59.2196 67.748C59.0002 68.7717 58.5625 69.2842 57.6852 69.2842ZM68.652 79.5094H65.8006V74.9087C65.8006 73.6315 65.3629 72.8634 64.4836 72.8634C63.8256 72.8634 63.3879 73.3747 63.1676 73.886C63.1676 74.1451 63.1676 74.3985 63.1676 74.6542V79.5128H60.5356C60.5356 79.5128 60.5356 71.3317 60.5356 70.5636H63.1676V71.8419C63.3879 71.3317 64.2653 70.308 65.5813 70.308C67.335 70.308 68.652 71.5851 68.652 74.3985V79.5094Z" fill="#585858"/>
<path d="M23.6882 57.7795L19.9595 62.1269C17.7662 60.0805 15.1341 58.8033 12.2828 58.8033C5.48338 58.8033 0 65.197 0 73.119C0 81.0444 5.48338 87.4369 12.2828 87.4369C19.0812 87.4369 24.5655 81.0444 24.5655 73.119C24.5655 69.7954 23.4689 66.473 21.7142 64.171L25.4429 59.8237C24.7849 59.0555 24.1269 58.2874 23.6882 57.7795ZM17.5478 70.8169C17.5478 75.1631 14.6964 80.0194 9.65173 80.0194C8.11736 80.0194 6.58104 79.5081 5.48436 78.4832C5.70369 78.4832 5.92303 78.4832 6.14236 78.4832C7.45838 78.4832 8.55505 77.973 9.65173 77.2061C8.55505 77.2061 7.45838 76.1834 7.01971 74.904C7.23904 74.904 7.4574 74.904 7.4574 74.904C7.67771 74.904 7.89607 74.904 8.11638 74.904C6.79939 74.6461 5.92303 73.3701 5.92303 71.8361C6.3617 72.0929 6.80037 72.3463 7.23904 72.3463C6.58104 71.8361 5.92303 70.8124 5.92303 69.7897C5.92303 69.2807 6.14236 68.7671 6.3617 68.2558C7.67771 70.3022 9.65075 71.5793 12.0634 71.5793C12.0634 71.3214 12.0634 71.0692 12.0634 70.8124C12.0634 69.0228 13.3804 67.4888 14.9148 67.4888C15.7921 67.4888 16.4501 67.999 16.8898 68.5114C17.5478 68.2546 18.2058 68.0001 18.6445 67.7445C18.4242 68.5114 17.9855 69.0216 17.3275 69.5318C17.9855 69.5318 18.4242 69.275 18.8628 69.0216C18.4242 69.7886 17.9855 70.2988 17.5468 70.5556C17.5478 70.5601 17.5478 70.5601 17.5478 70.8169Z" fill="#585858"/>
<path d="M12.2828 28.6337C15.1341 28.6337 17.9845 27.3554 19.9595 25.3101L23.6882 29.6563C24.1269 28.8893 24.7849 28.3791 25.2236 27.8678L21.4939 23.5217C23.2486 20.9651 24.3452 17.8972 24.3452 14.5736C24.3452 6.64827 18.8618 0.256836 12.0625 0.256836C5.26404 0.256836 0 6.64827 0 14.5736C0 22.2411 5.48338 28.6337 12.2828 28.6337ZM9.43141 12.0148H10.7474V10.4808C10.7474 8.43559 11.4054 7.1573 13.5988 7.1573H15.3535V9.71387H14.2568C13.3794 9.71387 13.3794 9.96953 13.3794 10.7365V12.0148H15.3535L15.1341 14.5714H13.1582V21.7298H10.5261V14.5714H9.2111V12.0148H9.43141Z" fill="#585858"/>
<path d="M48.4741 50.8745C48.2528 50.3655 47.8151 50.1064 47.5967 50.1064C45.6227 49.3394 43.869 48.8304 41.895 48.0623C41.6757 48.0623 41.237 47.5521 41.237 46.5283C41.237 46.0159 41.237 45.7602 40.7993 45.7602C40.578 45.7602 40.7993 45.7602 40.578 45.5046C40.3597 44.4819 40.3597 43.9695 40.3597 43.715C40.3597 43.4604 40.578 43.4582 40.578 43.2036C41.237 42.181 41.4554 40.6482 41.4554 40.1358C41.4554 40.1358 41.6757 40.1358 41.6757 39.879C41.895 39.3676 41.895 39.3676 41.895 38.5995C42.1163 38.0905 42.1163 37.3235 41.6757 37.3235C41.4554 37.5792 41.4554 37.3235 41.4554 36.8122V33.7443C41.4554 32.7217 40.7964 31.9559 40.3597 31.7002C39.6997 31.1878 39.4823 30.9321 39.262 30.9321C39.0417 30.6764 39.0417 30.4208 39.262 30.1651C39.4813 29.9106 39.6997 29.9106 39.6997 29.6538C39.6997 29.6538 39.6997 29.6538 39.4794 29.6538C39.2591 29.6538 37.945 29.9117 37.287 30.1651C36.1903 30.4208 35.0937 30.9321 34.2153 31.7002C33.5573 32.2104 33.1187 32.9774 33.1187 34.0023C33.1187 34.5113 33.1187 36.0464 33.1187 37.0702C33.1187 37.3281 33.1187 37.5815 32.8993 37.3281C32.2413 37.3281 32.68 38.3507 32.68 38.6041C32.68 39.1154 32.8993 39.3722 33.1177 39.8835C33.1177 40.1403 33.338 40.1403 33.338 40.1403C33.5573 40.9073 33.7767 42.4412 34.2153 43.2082C34.2153 43.2082 34.4357 43.465 34.4357 43.7195C34.4357 44.2308 34.4357 44.9978 34.2153 45.5091C34.2153 45.5091 34.2153 45.7659 33.996 45.7659C33.5573 45.7659 33.5573 46.0216 33.5573 46.5329C33.5573 47.2999 33.1187 48.068 32.8993 48.068C31.8026 48.577 28.5136 49.8564 27.4159 50.1121C26.7579 50.37 26.5386 50.6234 26.3193 50.8791L25.2226 53.947C29.6083 53.947 31.8026 57.0149 36.4087 58.0375H38.602C43.2081 57.2705 46.4971 53.947 49.5688 53.947L48.4741 50.8745Z" fill="#585858"/>
</svg>
